<svg width="218" height="40" viewBox="0 0 218 40" fill="none" xmlns="http://www.w3.org/2000/svg">
<g clip-path="url(#clip0_726_26179)">
<path d="M217.274 18.8304C217.274 19.3831 217.224 19.9358 217.148 20.4634H200.541C201.27 23.3527 203.883 25.4882 206.998 25.4882C209.209 25.4882 211.169 24.4079 212.375 22.7497H216.495C214.963 26.4681 211.295 29.1061 206.998 29.1061C201.32 29.1061 196.723 24.5084 196.723 18.8304C196.723 13.1775 201.32 8.55469 206.998 8.55469C212.676 8.55469 217.274 13.1775 217.274 18.8304ZM206.998 12.1977C203.983 12.1977 201.421 14.2076 200.617 16.9712H213.38C212.576 14.2076 210.013 12.1977 206.998 12.1977Z" fill="black"/>
<path d="M183.049 28.7313V8.93359H186.692V11.3706C188.476 9.86318 190.787 8.93359 193.299 8.93359H194.932V12.5766H193.299C189.656 12.5766 186.692 15.5412 186.692 19.1842V28.7313H183.049Z" fill="black"/>
<path d="M178.825 18.8304C178.825 24.5084 174.227 29.1061 168.549 29.1061C162.871 29.1061 158.273 24.5084 158.273 18.8304C158.273 13.1775 162.871 8.55469 168.549 8.55469C174.227 8.55469 178.825 13.1775 178.825 18.8304ZM175.207 18.8304C175.207 15.1623 172.217 12.1977 168.549 12.1977C164.881 12.1977 161.916 15.1623 161.916 18.8304C161.916 22.4985 164.881 25.4882 168.549 25.4882C172.217 25.4882 175.207 22.4985 175.207 18.8304Z" fill="black"/>
<path d="M118.838 28.7292V26.6691C117.029 28.1765 114.718 29.1061 112.18 29.1061C106.502 29.1061 101.904 24.5084 101.904 18.8304C101.904 13.1775 106.502 8.55469 112.18 8.55469C114.718 8.55469 117.029 9.48427 118.838 11.0168V8.93155H122.456V28.7292H118.838ZM118.838 18.8304C118.838 15.1623 115.848 12.1977 112.18 12.1977C108.512 12.1977 105.547 15.1623 105.547 18.8304C105.547 22.4985 108.512 25.4882 112.18 25.4882C115.848 25.4882 118.838 22.4985 118.838 18.8304Z" fill="black"/>
<path d="M79.207 19.8625V8.93359H82.8249V19.8625C82.8249 22.9779 85.3373 25.4903 88.4526 25.4903C91.5429 25.4903 94.0553 22.9779 94.0553 19.8625V8.93359H97.6983V28.7313H94.0553V27.1987C92.4976 28.4046 90.5631 29.1081 88.4526 29.1081C83.3525 29.1081 79.207 24.9627 79.207 19.8625Z" fill="black"/>
<path d="M54.1985 29.5834H57.8164C57.8164 33.1762 60.7559 36.1157 64.3486 36.1157C67.9413 36.1157 70.8808 33.1762 70.8808 29.5834V26.6691C69.0719 28.1765 66.7605 29.1061 64.223 29.1061C58.5449 29.1061 53.9473 24.5084 53.9473 18.8304C53.9473 13.1775 58.5449 8.55469 64.223 8.55469C66.7605 8.55469 69.0719 9.48427 70.8808 11.0168V8.93155H74.4987V29.5834C74.4987 35.1861 69.9512 39.7335 64.3486 39.7335C58.7459 39.7335 54.1985 35.1861 54.1985 29.5834ZM70.8808 18.8304C70.8808 15.1623 67.8911 12.1977 64.223 12.1977C60.5549 12.1977 57.5902 15.1623 57.5902 18.8304C57.5902 22.4985 60.5549 25.4882 64.223 25.4882C67.8911 25.4882 70.8808 22.4985 70.8808 18.8304Z" fill="black"/>
<path d="M31.6055 28.7292V8.93155H35.2484V10.4641C36.8061 9.28328 38.7407 8.55469 40.8511 8.55469C45.9512 8.55469 50.0967 12.7001 50.0967 17.8003V28.7292H46.4788V17.8003C46.4788 14.7101 43.9664 12.1977 40.8511 12.1977C37.7608 12.1977 35.2484 14.7101 35.2484 17.8003V28.7292H31.6055Z" fill="black"/>
<path d="M22.8438 28.7293V8.93164H26.4867V28.7293H22.8438Z" fill="black"/>
<path d="M0.876953 28.73V0.464844H4.51993V25.1122H19.2174V28.73H0.876953Z" fill="black"/>
<path d="M141.356 25.4388C145.286 25.4388 148.724 23.293 150.56 20.139H154.696C152.576 25.413 147.406 29.1616 141.356 29.1616C133.445 29.1616 127.008 22.7243 127.008 14.8132C127.008 6.90224 133.445 0.464844 141.356 0.464844C147.406 0.464844 152.576 4.21353 154.696 9.48753H150.56C148.724 6.33347 145.286 4.18767 141.356 4.18767C135.513 4.18767 130.756 8.94462 130.756 14.8132C130.756 20.6819 135.513 25.4388 141.356 25.4388Z" fill="black"/>
<path d="M27.4166 3.22848C27.4166 4.76104 26.1909 5.99211 24.6651 5.99211C23.1393 5.99211 21.8887 4.76104 21.8887 3.22848C21.8887 1.69592 23.1393 0.464844 24.6651 0.464844C26.1909 0.464844 27.4166 1.69592 27.4166 3.22848Z" fill="#FC4A0B"/>
<path d="M171.301 18.8164C171.301 20.3489 170.076 21.58 168.55 21.58C167.024 21.58 165.773 20.3489 165.773 18.8164C165.773 17.2838 167.024 16.0527 168.55 16.0527C170.076 16.0527 171.301 17.2838 171.301 18.8164Z" fill="#FC4A0B"/>
</g>
<defs>
<clipPath id="clip0_726_26179">
<rect width="218" height="40" fill="white"/>
</clipPath>
</defs>
</svg>
